Coordinates
version=1
nRows=17
nColumns=33
inDegrees=yes

Units are S.I. units (second, meters, Newtons, ...)
Angles are in degrees.

endheader
time	ground_thorax_rot_x	ground_thorax_rot_y	ground_thorax_rot_z	ground_thorax_tx	ground_thorax_ty	ground_thorax_tz	clav_prot_r	clav_elev_r	scapula_abduction_r	scapula_elevation_r	scapula_upward_rot_r	scapula_winging_r	shoulder_elv_r	plane_of_elev_r	axial_rot_r	elbow_flexion_r	pro_sup_r	wrist_flex_r	wrist_dev_r	clav_prot_l	clav_elev_l	scapula_abduction_l	scapula_elevation_l	scapula_upward_rot_l	scapula_winging_l	shoulder_elv_l	plane_of_elev_l	axial_rot_l	elbow_flexion_l	pro_sup_l	wrist_flex_l	wrist_dev_l
      3.93000000	     33.32356348	     25.70284216	     29.22207723	   -150.58624831	    807.02784975	      5.93928685	     13.71350098	     36.25350843	     36.45988619	     45.00000000	    -45.00000000	  -4761.64433515	  -1545.78329509	    143.07751877	    179.99999979	   2177.45428487	     89.15626429	     25.46936084	      9.68500234	      6.55081838	    -45.00000000	    -38.23114619	     45.00000000	    -40.67407675	   1895.29882631	  -1894.15035137	    137.95128210	    153.53046261	    730.36493254	     11.71455817	      9.01241931	    -20.03541410
      3.94000000	     32.34104130	     22.42821396	     29.23984318	   -163.78308428	    812.41373828	     -5.37967816	     13.13134460	     35.50128064	     35.59036451	     45.00000000	    -45.00000000	  -4760.88105320	  -1545.86787775	    143.29440799	    179.99999979	   2174.71926891	     62.29720551	     23.96865716	     10.90315362	      6.56857860	    -45.00000000	    -37.79125780	     45.00000000	    -39.62896988	   1895.99340025	  -1894.04184336	    137.67024821	    153.94833958	    730.39028657	     10.78650810	      8.75744585	    -19.85554687
      3.95000000	     32.51466717	     22.02487540	     28.53703507	   -166.72005674	    813.57461616	     -5.33266588	     13.05105937	     35.66261647	     35.68630109	     45.00000000	    -45.00000000	  -4761.04469738	  -1545.77644996	    143.21636949	    179.99999979	   2174.92882355	     62.31496054	     23.91264864	     10.59644919	      6.54905869	    -45.00000000	    -38.25619817	     45.00000000	    -38.14562000	   1896.31605102	  -1894.14549550	    138.02115952	    153.52346991	    730.51345596	     10.73009110	      8.75823034	    -19.90918884
      3.96000000	     32.67428839	     21.76533199	     28.07034898	   -169.65294540	    814.72361952	     -5.28625785	     13.04703583	     35.63673031	     35.65857483	     45.00000000	    -45.00000000	  -4761.17738146	  -1545.54015784	    143.14932854	    179.99999979	   2175.09487274	     62.47523095	     23.92774272	     10.46537892	      6.56873220	    -45.00000000	    -38.28063937	     45.00000000	    -37.85334021	   1896.53082508	  -1893.99009330	    138.00751115	    153.25307315	    730.57905683	     10.54708647	      8.58130462	    -19.94955404
      3.97000000	     32.85010331	     21.47699121	     27.57439500	   -172.58328267	    815.86001719	     -5.23817697	     12.99214403	     35.63378962	     35.69906020	     45.00000000	    -45.00000000	  -4761.34423410	  -1545.35789378	    143.10959905	    179.99999979	   2175.27253817	     62.70041666	     23.92023259	     10.29709784	      6.55076434	    -45.00000000	    -38.31564183	     45.00000000	    -37.62609593	   1896.68338692	  -1893.83295680	    137.99828586	    153.34014652	    730.61835847	     10.28607246	      8.47182468	    -19.99027919
      3.98000000	     33.00979209	     21.18534536	     27.08091995	   -175.50801072	    816.97946034	     -5.18914523	     12.95400320	     35.62829808	     35.71180420	     45.00000000	    -45.00000000	  -4761.50238695	  -1545.16780857	    143.06731845	    179.99999979	   2175.46293135	     62.97501072	     23.91213538	     10.12051810	      6.55381894	    -45.00000000	    -38.37539639	     45.00000000	    -37.40605056	   1896.84375343	  -1893.65177615	    137.99418149	    153.33484316	    730.66662571	     10.01057419	      8.37311895	    -20.02809322
      3.99000000	     33.26820754	     20.74186581	     26.44697107	   -178.42572827	    818.07970683	     -5.13996316	     12.71302615	     35.69387095	     35.92707137	     45.00000000	    -45.00000000	  -4761.73875923	  -1545.09405113	    142.95847000	    179.99999979	   2175.62541143	     63.24428901	     23.90071829	      9.92589583	      6.38980642	    -45.00000000	    -38.34696191	     45.00000000	    -36.78907631	   1897.04975947	  -1893.69997894	    138.04213460	    153.45958422	    730.61062972	      9.73317108	      8.16393481	    -20.06934209
      4.00000000	     33.37810580	     20.50701578	     26.05991160	   -181.33320940	    819.15839941	     -5.09115791	     12.74143750	     35.64598686	     35.88416763	     45.00000000	    -45.00000000	  -4761.84904282	  -1544.88460405	    142.99503097	    179.99999979	   2175.75426158	     63.56959315	     23.89924527	      9.77979522	      6.45783708	    -45.00000000	    -38.37463381	     45.00000000	    -36.73171695	   1897.20304384	  -1893.51389683	    138.02153007	    153.33783985	    730.63506356	      9.46463747	      8.07906351	    -20.08318686
      4.01000000	     33.53085974	     20.18723215	     25.57087667	   -184.22588928	    820.21500430	     -5.04268985	     12.66137305	     35.64414797	     35.88442485	     45.00000000	    -45.00000000	  -4761.99159434	  -1544.73004954	    142.93395333	    179.99999979	   2175.98065444	     63.89749247	     23.88431449	      9.57333428	      6.43534982	    -45.00000000	    -38.40427884	     45.00000000	    -36.45845194	   1897.39108490	  -1893.38249509	    138.06017180	    153.29369082	    730.68603878	      9.16756877	      7.97133468	    -20.11972705
      4.02000000	     33.58271913	     20.07890032	     25.25821451	   -187.09776568	    821.24858251	     -4.99392327	     12.72803237	     35.56411159	     35.74046540	     45.00000000	    -45.00000000	  -4762.07531234	  -1544.52350631	    143.01356985	    179.99999979	   2176.07205138	     64.32153317	     23.88580960	      9.43576907	      6.59407306	    -45.00000000	    -38.42847309	     45.00000000	    -36.71533863	   1897.48134186	  -1893.10263195	    138.00237538	    153.24885845	    730.74236986	      8.81625024	      7.90196434	    -20.12531865
      4.03000000	     33.74715463	     19.69169429	     24.74326153	   -189.94683403	    822.26064397	     -4.94397030	     12.57736701	     35.61507930	     35.78841005	     45.00000000	    -45.00000000	  -4762.23193875	  -1544.42868541	    142.95570897	    179.99999979	   2176.27675319	     64.69676829	     23.86526725	      9.21749683	      6.49427281	    -45.00000000	    -38.43284068	     45.00000000	    -36.37910425	   1897.64270789	  -1893.05563248	    138.06616751	    153.26178178	    730.75197076	      8.49121185	      7.78750854	    -20.16015006
      4.04000000	     33.90164705	     19.36788738	     24.27544101	   -192.77050401	    823.25049254	     -4.89179295	     12.49031994	     35.62121041	     35.79029757	     45.00000000	    -45.00000000	  -4762.34495253	  -1544.24522841	    142.94670963	    179.99999979	   2176.38401125	     65.09145378	     23.85953698	      9.05210549	      6.49127817	    -45.00000000	    -38.39469198	     45.00000000	    -36.17013685	   1897.81116582	  -1892.97802856	    138.06003010	    153.16914308	    730.72344430	      8.19629066	      7.64964436	    -20.17385196
      4.05000000	     33.99107361	     19.10960562	     23.88496722	   -195.57034702	    824.21837792	     -4.83646684	     12.48170330	     35.56534586	     35.73166688	     45.00000000	    -45.00000000	  -4762.43416657	  -1544.12317152	    142.92995699	    179.99999979	   2176.57985746	     65.50204395	     23.84854057	      8.86438392	      6.53024606	    -45.00000000	    -38.43786696	     45.00000000	    -36.05861678	   1898.00246738	  -1892.82813331	    138.12614977	    152.97023337	    730.77522055	      7.91280899	      7.56361271	    -20.19913225
      4.06000000	     34.09051514	     18.88530392	     23.52626320	   -198.33996720	    825.16050173	     -4.77725614	     12.42839040	     35.53130523	     35.65303179	     45.00000000	    -45.00000000	  -4762.54072667	  -1543.96156245	    142.94909666	    179.99999979	   2176.68788845	     65.93621313	     23.85550176	      8.71282768	      6.59138203	    -45.00000000	    -38.39234985	     45.00000000	    -36.24189184	   1898.10749588	  -1892.66209790	    138.08661143	    153.01098600	    730.78627755	      7.59263881	      7.43259445	    -20.21129518
      4.07000000	     34.20280234	     18.57479943	     23.07087299	   -201.08006564	    826.07733039	     -4.71519461	     12.32533448	     35.54315601	     35.64649365	     45.00000000	    -45.00000000	  -4762.64287573	  -1543.84124013	    142.94471161	    179.99999979	   2176.81622504	     66.34398768	     23.82042177	      8.52932333	      6.56420896	    -45.00000000	    -38.36680574	     45.00000000	    -35.99922458	   1898.26759593	  -1892.62332943	    138.13754620	    152.94018366	    730.77180833	      7.33385602	      7.33065382	    -20.23865375
      4.08000000	     34.24060068	     18.40393712	     22.75782678	   -203.79058201	    826.96889138	     -4.65204034	     12.36682266	     35.44427976	     35.49301368	     45.00000000	    -45.00000000	  -4762.69081391	  -1543.72247974	    142.97812685	    179.99999979	   2176.93832023	     66.79390118	     23.83376196	      8.39493813	      6.69586047	    -45.00000000	    -38.36874151	     45.00000000	    -36.25259761	   1898.40019430	  -1892.42358330	    138.10677659	    152.78851843	    730.81223931	      7.07174885	      7.22599524	    -20.24812520
      4.09000000	     36.18918711	     20.32586698	     22.76695691	   -201.02688120	    819.93048940	      8.13450819	     13.42752989	     36.19310660	     36.16700536	     45.00000000	    -45.00000000	  -4763.67864951	  -1544.10035986	    143.35691852	    179.99999979	   2175.01913691	     67.12071055	     23.29098660	      7.75290887	      6.95578274	    -45.00000000	    -38.29662766	     45.00000000	    -38.36874789	   1898.01173297	  -1892.12541974	    138.18134408	    152.58321275	    730.61910126	      6.60830679	      7.00704454	    -20.33323405
